<svg width="1107" height="331" viewBox="0 0 1107 331" fill="none" xmlns="http://www.w3.org/2000/svg">
<path d="M721.84 79.0455C707.98 79.0455 694.926 82.5522 683.521 88.7237V0H641.236V238.51H683.521V159.433C683.521 138.361 700.713 121.214 721.84 121.214C742.967 121.214 760.159 138.361 760.159 159.433V238.51H802.443V159.433C802.443 115.106 766.283 79.0392 721.84 79.0392V79.0455Z" fill="#E08525"/>
<path style="mix-blend-mode:multiply" opacity="0.6" d="M721.84 79.0455C707.98 79.0455 694.926 82.5522 683.521 88.7237V159.433C683.521 138.361 700.713 121.214 721.84 121.214C742.967 121.214 760.159 138.361 760.159 159.433V238.51H802.444V159.433C802.444 115.106 766.283 79.0392 721.84 79.0392V79.0455Z" fill="url(#paint0_linear_42_532)"/>
<path d="M641.236 121.442V79.2671H602.918V24.1226H560.633V158.344C560.633 202.671 596.794 238.51 641.236 238.51V196.563C620.11 196.563 602.918 179.416 602.918 158.344V121.442H641.236Z" fill="#4FB2CE"/>
<path style="mix-blend-mode:multiply" opacity="0.5" d="M641.237 121.442H602.918V79.2734H641.237V121.442Z" fill="url(#paint1_linear_42_532)"/>
<path d="M80.6036 121.442V79.2671H42.285V24.1226H0V158.344C0 202.671 36.1609 238.51 80.6036 238.51V196.563C59.477 196.563 42.285 179.416 42.285 158.344V121.442H80.6036Z" fill="#E08525"/>
<path style="mix-blend-mode:multiply" opacity="0.5" d="M80.6038 121.442H42.2852V79.2734H80.6038V121.442Z" fill="url(#paint2_linear_42_532)"/>
<path d="M318.829 331C295.17 331 272.794 320.689 257.448 302.713L289.636 275.368C296.941 283.92 307.584 288.825 318.829 288.825C339.956 288.825 357.148 271.678 357.148 250.606V229.946C345.744 236.118 332.689 239.624 318.829 239.624C274.386 239.624 238.226 203.564 238.226 159.23C238.226 114.897 274.386 78.8367 318.829 78.8367C363.272 78.8367 399.433 114.903 399.433 159.23V250.606C399.433 294.933 363.272 331 318.829 331ZM318.829 121.012C297.703 121.012 280.511 138.159 280.511 159.23C280.511 180.302 297.703 197.449 318.829 197.449C339.956 197.449 357.148 180.302 357.148 159.23C357.148 138.159 339.956 121.012 318.829 121.012Z" fill="#59BE8C"/>
<path style="mix-blend-mode:multiply" opacity="0.6" d="M357.148 159.237C357.148 180.308 339.956 197.456 318.829 197.456C297.702 197.456 280.51 180.308 280.51 159.237H259.371V213.451C271.004 226.129 286.641 235.086 304.271 238.308C304.271 238.308 310.884 239.643 319.603 239.643C325.988 239.643 333.368 238.308 333.368 238.308C341.828 236.763 349.824 233.908 357.148 229.946L357.37 159.237H357.148Z" fill="url(#paint3_linear_42_532)"/>
<path d="M1006.91 238.51H964.622V159.23C964.622 114.903 1000.78 78.8367 1045.23 78.8367C1069.12 78.8367 1091.63 89.3124 1107 107.586L1074.61 134.69C1067.3 125.993 1056.59 121.012 1045.23 121.012C1024.11 121.012 1006.91 138.159 1006.91 159.23V238.51H1006.91Z" fill="#59BE8C"/>
<path d="M560.107 167.7C560.443 164.699 560.633 161.667 560.633 158.623C560.633 152.932 560.031 147.375 558.901 142.014C558.723 141.159 558.527 140.311 558.317 139.463C558.247 139.191 558.184 138.912 558.114 138.64C557.898 137.792 557.657 136.95 557.416 136.114C557.308 135.753 557.207 135.386 557.092 135.026C556.851 134.247 556.597 133.468 556.337 132.703C556.197 132.297 556.058 131.899 555.912 131.5C555.696 130.899 555.474 130.31 555.245 129.715C555.036 129.171 554.82 128.633 554.598 128.095C554.395 127.601 554.186 127.107 553.97 126.62C553.729 126.063 553.481 125.512 553.227 124.968C552.974 124.423 552.72 123.885 552.46 123.354C552.269 122.967 552.079 122.575 551.882 122.195C551.52 121.486 551.146 120.79 550.765 120.094C550.581 119.765 550.397 119.435 550.207 119.106C549.781 118.366 549.356 117.625 548.906 116.897C548.779 116.682 548.639 116.473 548.512 116.264C548.023 115.486 547.529 114.707 547.014 113.948C546.976 113.891 546.938 113.834 546.9 113.777C546.285 112.865 545.65 111.966 544.996 111.087C544.977 111.061 544.958 111.036 544.939 111.011C531.58 92.9519 510.841 80.6469 487.201 78.5645C487.15 78.5645 487.106 78.5581 487.055 78.5518C485.957 78.4569 484.853 78.3809 483.749 78.3303C483.616 78.3303 483.489 78.3239 483.355 78.3176C482.257 78.2733 481.16 78.248 480.049 78.248C435.606 78.248 399.445 114.315 399.445 158.642C399.445 202.969 435.606 239.036 480.049 239.036C504.273 239.036 526.992 228.319 542.375 209.628C548.163 202.595 552.682 194.702 555.798 186.182L516.07 171.738C514.592 175.776 512.446 179.523 509.692 182.866C508.467 184.353 507.141 185.727 505.732 186.993C505.263 187.417 504.787 187.822 504.298 188.221C497.507 193.765 488.997 196.861 480.049 196.861C479.433 196.861 478.824 196.842 478.209 196.816C478.012 196.81 477.815 196.791 477.618 196.778C477.206 196.753 476.793 196.721 476.387 196.683C476.159 196.664 475.937 196.633 475.708 196.614C475.327 196.569 474.953 196.525 474.578 196.468C474.35 196.437 474.122 196.405 473.893 196.367C473.519 196.304 473.144 196.234 472.77 196.164C472.554 196.12 472.338 196.082 472.122 196.038C471.71 195.949 471.297 195.854 470.891 195.753C470.726 195.715 470.561 195.677 470.396 195.633C469.825 195.487 469.26 195.322 468.702 195.152C468.607 195.12 468.518 195.088 468.429 195.063C467.959 194.911 467.502 194.759 467.039 194.595C466.849 194.525 466.665 194.449 466.474 194.379C466.113 194.246 465.757 194.101 465.402 193.955C465.199 193.873 464.996 193.784 464.793 193.696C464.456 193.55 464.126 193.398 463.796 193.246C463.593 193.151 463.39 193.056 463.193 192.955C462.857 192.791 462.521 192.62 462.191 192.442C462.007 192.347 461.829 192.253 461.645 192.158C461.258 191.949 460.877 191.727 460.496 191.499C460.382 191.43 460.261 191.366 460.147 191.297C459.658 190.999 459.17 190.689 458.694 190.366C458.573 190.29 458.459 190.202 458.345 190.126C457.989 189.879 457.634 189.632 457.285 189.373C457.12 189.252 456.955 189.126 456.796 188.999C456.504 188.771 456.212 188.55 455.92 188.315C455.749 188.176 455.578 188.037 455.413 187.891C455.14 187.664 454.867 187.423 454.594 187.189C454.429 187.043 454.264 186.898 454.105 186.752C453.826 186.499 453.553 186.233 453.287 185.973C453.147 185.834 453.001 185.701 452.862 185.562C452.519 185.22 452.189 184.866 451.859 184.511C451.802 184.448 451.738 184.385 451.681 184.321C451.3 183.897 450.926 183.467 450.558 183.03C450.45 182.897 450.342 182.764 450.241 182.631C449.987 182.321 449.733 182.005 449.492 181.682C449.365 181.511 449.238 181.34 449.111 181.163C448.895 180.872 448.686 180.574 448.476 180.277C448.349 180.093 448.223 179.91 448.102 179.72C447.905 179.416 447.708 179.112 447.518 178.808C447.404 178.625 447.29 178.441 447.175 178.251C446.972 177.916 446.782 177.58 446.592 177.238C446.503 177.074 446.408 176.916 446.319 176.751C446.046 176.245 445.779 175.732 445.532 175.219C445.519 175.194 445.506 175.169 445.494 175.143C445.252 174.65 445.03 174.15 444.815 173.643C444.738 173.466 444.669 173.289 444.599 173.111C444.453 172.751 444.307 172.39 444.167 172.023C444.091 171.814 444.015 171.605 443.939 171.39C443.818 171.048 443.698 170.706 443.583 170.358C443.514 170.137 443.444 169.921 443.38 169.7C443.272 169.345 443.171 168.991 443.076 168.636C443.019 168.421 442.955 168.212 442.904 167.997C442.885 167.915 442.866 167.826 442.847 167.744H560.138L560.107 167.7ZM460.902 125.525C461.137 125.392 461.372 125.252 461.607 125.12C461.689 125.075 461.765 125.031 461.848 124.987C462.324 124.733 462.8 124.487 463.289 124.246C463.409 124.189 463.53 124.132 463.65 124.075C464.082 123.873 464.52 123.67 464.958 123.486C465.034 123.455 465.11 123.417 465.192 123.385C465.694 123.176 466.195 122.98 466.709 122.79C466.836 122.74 466.969 122.695 467.096 122.651C467.56 122.486 468.023 122.328 468.486 122.176C468.556 122.151 468.626 122.132 468.695 122.107C469.216 121.948 469.749 121.796 470.282 121.657C470.415 121.619 470.555 121.588 470.695 121.556C471.19 121.429 471.691 121.315 472.192 121.208C472.243 121.195 472.3 121.182 472.351 121.17C472.897 121.056 473.449 120.961 474.007 120.872C474.147 120.853 474.287 120.828 474.426 120.809C474.959 120.733 475.499 120.657 476.044 120.6C476.076 120.6 476.108 120.594 476.14 120.587C476.704 120.531 477.282 120.493 477.853 120.455C477.999 120.448 478.139 120.442 478.278 120.436C478.862 120.41 479.44 120.391 480.03 120.391C480.62 120.391 481.185 120.41 481.756 120.436C481.915 120.442 482.08 120.448 482.238 120.461C482.752 120.493 483.266 120.531 483.774 120.575C483.965 120.594 484.155 120.619 484.352 120.638C484.713 120.676 485.075 120.727 485.437 120.777C485.71 120.815 485.976 120.853 486.243 120.898C486.471 120.936 486.7 120.98 486.922 121.018C487.506 121.125 488.09 121.239 488.661 121.379C488.743 121.398 488.832 121.417 488.921 121.436C489.397 121.55 489.867 121.67 490.336 121.803C490.615 121.879 490.895 121.967 491.174 122.05C491.358 122.107 491.542 122.157 491.726 122.221C492.043 122.322 492.361 122.429 492.672 122.537C492.805 122.581 492.944 122.632 493.078 122.683C493.414 122.803 493.75 122.929 494.08 123.062C494.182 123.1 494.277 123.145 494.379 123.183C494.734 123.328 495.09 123.474 495.445 123.632C495.496 123.651 495.54 123.676 495.591 123.695C496.816 124.24 498.009 124.847 499.164 125.512H460.915L460.902 125.525Z" fill="#195239"/>
<path style="mix-blend-mode:multiply" opacity="0.6" d="M558.812 141.963C558.634 141.108 558.437 140.26 558.228 139.412C558.164 139.14 558.095 138.861 558.025 138.589C557.809 137.741 557.574 136.899 557.327 136.064C557.219 135.697 557.111 135.336 557.003 134.975C556.762 134.196 556.508 133.418 556.248 132.652C556.108 132.247 555.962 131.848 555.823 131.449C555.607 130.848 555.385 130.253 555.156 129.664C554.947 129.12 554.731 128.582 554.509 128.044C554.306 127.55 554.097 127.056 553.881 126.569C553.722 126.202 553.557 125.841 553.392 125.48H461.048C449.53 132.108 441.774 144.514 441.774 158.73C441.774 161.807 442.149 164.788 442.834 167.655H517.18L517.669 167.7H560.03C560.367 164.655 560.557 161.629 560.557 158.578C560.557 152.888 559.954 147.331 558.824 141.969L558.812 141.963Z" fill="url(#paint4_linear_42_532)"/>
<path d="M963.118 167.7C963.455 164.699 963.645 161.667 963.645 158.623C963.645 152.932 963.042 147.375 961.913 142.014C961.735 141.159 961.538 140.311 961.329 139.463C961.265 139.191 961.196 138.912 961.126 138.64C960.91 137.792 960.675 136.95 960.428 136.114C960.32 135.753 960.212 135.386 960.104 135.026C959.863 134.247 959.609 133.468 959.349 132.703C959.209 132.297 959.07 131.899 958.924 131.5C958.708 130.899 958.486 130.31 958.257 129.715C958.048 129.171 957.832 128.633 957.61 128.095C957.407 127.601 957.197 127.107 956.982 126.62C956.74 126.063 956.493 125.512 956.239 124.968C955.985 124.423 955.731 123.885 955.471 123.354C955.281 122.967 955.09 122.575 954.894 122.195C954.532 121.486 954.158 120.79 953.777 120.094C953.593 119.765 953.409 119.435 953.218 119.106C952.799 118.366 952.368 117.625 951.917 116.897C951.784 116.682 951.651 116.473 951.524 116.264C951.035 115.486 950.54 114.707 950.026 113.948C949.988 113.891 949.95 113.834 949.912 113.777C949.296 112.865 948.662 111.966 948.008 111.087C947.989 111.061 947.97 111.036 947.951 111.011C934.592 92.9519 913.853 80.6469 890.213 78.5645C890.162 78.5645 890.118 78.5581 890.067 78.5518C888.969 78.4569 887.865 78.3809 886.761 78.3303C886.627 78.3303 886.5 78.3239 886.367 78.3176C885.269 78.2733 884.171 78.248 883.061 78.248C838.618 78.248 802.457 114.315 802.457 158.642C802.457 202.969 838.618 239.036 883.061 239.036C907.284 239.036 930.004 228.319 945.387 209.628C951.175 202.595 955.693 194.702 958.809 186.182L919.082 171.738C917.603 175.776 915.458 179.523 912.704 182.866C911.479 184.353 910.153 185.727 908.744 186.993C908.274 187.417 907.798 187.822 907.31 188.221C900.519 193.765 892.009 196.861 883.061 196.861C882.445 196.861 881.836 196.842 881.227 196.816C881.03 196.81 880.833 196.791 880.636 196.778C880.224 196.753 879.811 196.721 879.399 196.683C879.17 196.664 878.948 196.633 878.72 196.614C878.339 196.569 877.965 196.525 877.59 196.468C877.362 196.437 877.133 196.405 876.905 196.367C876.53 196.304 876.156 196.234 875.782 196.164C875.566 196.12 875.35 196.082 875.141 196.038C874.728 195.949 874.316 195.854 873.909 195.753C873.744 195.715 873.573 195.677 873.414 195.633C872.843 195.487 872.278 195.322 871.72 195.152C871.625 195.12 871.536 195.088 871.447 195.063C870.977 194.911 870.52 194.759 870.057 194.595C869.867 194.525 869.683 194.449 869.492 194.379C869.131 194.246 868.775 194.101 868.42 193.955C868.217 193.873 868.014 193.784 867.811 193.696C867.474 193.55 867.144 193.398 866.814 193.246C866.611 193.151 866.408 193.056 866.211 192.955C865.875 192.791 865.539 192.62 865.209 192.442C865.025 192.347 864.847 192.253 864.663 192.158C864.276 191.949 863.895 191.727 863.514 191.499C863.4 191.43 863.279 191.366 863.165 191.297C862.677 190.999 862.188 190.689 861.712 190.366C861.591 190.29 861.477 190.202 861.363 190.126C861.007 189.879 860.652 189.632 860.303 189.373C860.138 189.252 859.973 189.126 859.814 188.999C859.522 188.771 859.23 188.55 858.939 188.315C858.767 188.176 858.596 188.037 858.431 187.891C858.158 187.664 857.885 187.423 857.612 187.189C857.447 187.043 857.282 186.898 857.124 186.752C856.844 186.499 856.571 186.233 856.305 185.973C856.165 185.834 856.019 185.701 855.88 185.562C855.537 185.22 855.201 184.866 854.877 184.511C854.82 184.448 854.756 184.385 854.699 184.321C854.319 183.897 853.944 183.467 853.576 183.03C853.468 182.897 853.36 182.764 853.259 182.631C853.005 182.321 852.751 182.005 852.51 181.682C852.383 181.511 852.256 181.34 852.129 181.163C851.913 180.872 851.704 180.574 851.494 180.277C851.368 180.093 851.241 179.91 851.12 179.72C850.923 179.416 850.727 179.112 850.536 178.808C850.422 178.625 850.308 178.441 850.194 178.251C849.99 177.916 849.8 177.58 849.61 177.238C849.521 177.074 849.426 176.916 849.337 176.751C849.064 176.245 848.797 175.732 848.55 175.219C848.537 175.194 848.524 175.169 848.512 175.143C848.271 174.65 848.048 174.15 847.833 173.643C847.756 173.466 847.687 173.289 847.617 173.111C847.471 172.751 847.325 172.39 847.185 172.023C847.109 171.814 847.033 171.605 846.957 171.39C846.836 171.048 846.716 170.706 846.602 170.358C846.532 170.137 846.462 169.921 846.398 169.7C846.291 169.345 846.189 168.991 846.094 168.636C846.037 168.421 845.973 168.212 845.922 167.997C845.897 167.915 845.884 167.826 845.865 167.744H963.157L963.118 167.7ZM863.914 125.525C864.149 125.392 864.384 125.252 864.618 125.12C864.695 125.075 864.777 125.031 864.86 124.987C865.336 124.733 865.812 124.487 866.3 124.246C866.421 124.189 866.541 124.132 866.662 124.075C867.094 123.873 867.531 123.67 867.969 123.486C868.045 123.455 868.122 123.417 868.204 123.385C868.705 123.176 869.207 122.98 869.721 122.79C869.848 122.74 869.981 122.695 870.108 122.651C870.571 122.486 871.035 122.328 871.504 122.176C871.574 122.151 871.644 122.132 871.714 122.107C872.234 121.948 872.767 121.796 873.3 121.657C873.433 121.619 873.573 121.588 873.713 121.556C874.208 121.429 874.709 121.315 875.21 121.208C875.261 121.195 875.318 121.182 875.369 121.17C875.915 121.056 876.467 120.961 877.025 120.872C877.165 120.853 877.305 120.828 877.444 120.809C877.977 120.733 878.517 120.657 879.056 120.6C879.088 120.6 879.12 120.594 879.151 120.587C879.716 120.531 880.287 120.493 880.865 120.455C881.011 120.448 881.15 120.442 881.29 120.436C881.874 120.41 882.451 120.391 883.042 120.391C883.632 120.391 884.197 120.41 884.768 120.436C884.926 120.442 885.091 120.448 885.25 120.461C885.764 120.493 886.278 120.531 886.786 120.575C886.976 120.594 887.167 120.619 887.363 120.638C887.725 120.676 888.087 120.727 888.449 120.777C888.715 120.815 888.988 120.853 889.255 120.898C889.483 120.936 889.705 120.98 889.934 121.018C890.518 121.125 891.101 121.239 891.673 121.379C891.755 121.398 891.844 121.417 891.933 121.436C892.409 121.55 892.878 121.67 893.348 121.803C893.627 121.879 893.906 121.967 894.186 122.05C894.37 122.107 894.554 122.157 894.738 122.221C895.055 122.322 895.372 122.429 895.683 122.537C895.817 122.581 895.956 122.632 896.089 122.683C896.426 122.803 896.762 122.929 897.092 123.062C897.194 123.1 897.289 123.145 897.39 123.183C897.746 123.328 898.101 123.474 898.457 123.632C898.507 123.651 898.552 123.676 898.603 123.695C899.827 124.24 901.02 124.847 902.176 125.512H863.927L863.914 125.525Z" fill="#282460"/>
<path style="mix-blend-mode:multiply" opacity="0.6" d="M961.823 141.963C961.646 141.108 961.449 140.26 961.24 139.412C961.17 139.14 961.106 138.861 961.037 138.589C960.821 137.741 960.586 136.899 960.338 136.064C960.231 135.697 960.123 135.336 960.015 134.975C959.774 134.196 959.52 133.418 959.26 132.652C959.12 132.247 958.974 131.848 958.834 131.449C958.619 130.848 958.396 130.253 958.168 129.664C957.959 129.12 957.743 128.582 957.521 128.044C957.318 127.55 957.108 127.056 956.892 126.569C956.734 126.202 956.569 125.841 956.404 125.48H864.06C852.541 132.108 844.786 144.514 844.786 158.73C844.786 161.807 845.161 164.788 845.846 167.655H920.192L920.681 167.7H963.042C963.378 164.655 963.569 161.629 963.569 158.578C963.569 152.888 962.966 147.331 961.836 141.969L961.823 141.963Z" fill="url(#paint5_linear_42_532)"/>
<path d="M213.856 217.906C246.34 185.507 246.34 132.977 213.856 100.578C181.372 68.1783 128.705 68.1782 96.2216 100.578C63.7377 132.977 63.7377 185.507 96.2216 217.906C128.705 250.305 181.372 250.305 213.856 217.906Z" fill="#4FB2CE"/>
<g opacity="0.1">
<path d="M238.226 159.243C236.918 205.045 200.986 242.207 155.045 242.207C124.26 242.207 97.3772 225.522 82.9902 200.728C82.9902 200.728 172.402 264.873 238.226 159.243Z" fill="#282460"/>
</g>
<path d="M140.627 88.1161C134.712 87.021 128.734 89.1921 123.118 91.3379C122.496 91.5721 121.817 91.8949 121.328 92.3316C120.922 92.6924 120.649 93.1355 120.655 93.6862C120.655 96.7118 124.717 96.4206 124.082 100.193C123.53 103.478 125.288 106.162 128.671 106.479C132.726 106.852 134.611 102.352 138.095 100.769C140.132 99.845 142.283 99.0348 143.94 97.5347C145.596 96.0345 146.656 93.5976 145.818 91.5278C145.006 89.5276 142.759 88.5148 140.633 88.1224L140.627 88.1161Z" fill="#195239"/>
<path d="M173.9 101.548C174.3 100.725 174.198 99.6995 173.253 98.6551C171.882 97.1486 169.032 97.022 167.446 98.2056C162.737 101.731 171.964 105.529 173.9 101.548Z" fill="#195239"/>
<path d="M119.601 210.406C122.165 207.583 124.729 204.76 127.293 201.937C129.248 199.785 132.478 196.987 133.811 194.088C135.378 190.67 134.648 187.246 134.496 183.423C134.274 177.89 130.492 176.624 126.373 175.226C125.897 175.061 125.415 174.903 124.932 174.726C120.052 172.972 117.831 169.516 114.594 165.699C112.183 162.857 109.048 161.294 105.982 161.275C102.574 161.25 98.8048 162.123 96.1838 159.648C93.8421 157.445 92.5982 154.319 90.8657 151.666C88.3843 147.869 80.6292 147.691 85.6681 141.14C88.7334 137.152 95.2509 132.487 100.03 134.443C101.972 135.234 104.662 135.678 105.767 133.899C106.16 133.26 106.23 132.475 106.224 131.728C106.198 128.658 105.126 125.537 105.963 122.581C107.093 118.587 110.901 117.904 113.147 114.96C115.413 111.985 115.483 107.517 114.734 104.048C114.359 102.307 113.833 100.535 112.684 99.1677C110.526 96.5978 108.419 96.9966 106.719 99.3766C105.183 101.529 104.7 102.39 102.143 103.067C100.88 103.402 99.0206 102.2 97.8465 101.624C97.1485 101.276 96.755 100.801 96.5646 100.244C86.8231 109.846 79.4488 121.828 75.3936 135.247C75.7426 135.76 76.0853 136.285 76.3582 136.842C77.6782 139.513 77.4307 142.647 77.5576 145.628C77.6909 148.603 78.4524 151.913 80.9719 153.515C82.8948 154.736 85.4714 154.692 87.242 156.123C92.6046 160.458 86.0362 168.845 86.0806 174.017C86.1124 177.72 86.1377 179.561 86.1885 183.226C86.2393 186.625 87.2737 189.974 89.1395 192.651C92.0207 196.791 93.8865 200.26 94.629 205.304C95.3969 210.514 96.5265 214.767 99.2491 220.781C103.533 224.648 108.229 228.072 113.255 230.99C112.544 228.8 111.967 226.541 111.91 225.939C111.282 219.464 115.61 214.799 119.601 210.406Z" fill="#195239"/>
<path d="M190.654 99.9653C190.312 100.775 190.293 101.719 190.699 102.497C191.682 104.358 194.145 103.871 195.776 102.871C196.969 102.136 199.679 99.7311 201.005 99.5412C208.145 98.5347 200.732 104.7 200.485 106.776C200.25 108.738 200.453 110.359 199.609 111.852C197.832 115.005 195.953 114.517 194.405 114.46C192.108 114.384 192.355 111.852 190.502 113.213C186.555 116.1 182.848 122.809 188.122 126.386C189.48 127.31 191.479 127.36 193.028 128.183C194.589 129.012 196.03 130.114 197.286 131.348C199.526 133.544 202.344 134.905 205.124 135.095C205.486 135.121 205.803 135.14 206.101 135.165C207.497 135.26 208.906 134.912 210.042 134.082C213.031 131.905 216.331 132.601 220.183 135.07C222.506 136.564 224.086 139.026 224.321 141.773C225.489 155.673 204.476 148.217 198.524 145.356C185.45 139.077 174.11 147.375 168.982 159.275C166.025 166.149 164.108 174.567 168.335 180.745C170.556 183.986 174.186 186.062 177.975 187.126C181.763 188.189 185.749 188.328 189.683 188.398C191.27 188.423 192.895 188.448 194.373 189.012C200.148 191.202 195.547 200.867 197.946 205.596C198.778 207.229 200.053 208.653 200.574 210.413C201.043 212.001 200.84 213.704 200.637 215.343C200.224 218.641 199.812 221.939 199.399 225.237C199.273 226.23 199.152 227.275 199.514 228.218C199.628 228.528 199.799 228.807 200.002 229.06C217.448 217.856 230.426 200.329 235.675 179.72C235.675 179.239 235.656 178.77 235.617 178.34C235.249 174.39 230.287 169.599 228.084 166.535C227.615 165.877 219.942 155.103 226.25 157.49C227.012 157.781 227.659 158.3 228.142 158.958L232.095 164.332C233.504 166.244 235.161 168.314 237.743 168.193C238.061 165.256 238.226 162.269 238.226 159.249C238.226 133.393 226.365 110.302 207.777 95.0851C201.614 92.7241 193.542 93.1039 190.654 99.9716V99.9653Z" fill="#195239"/>
<defs>
<linearGradient id="paint0_linear_42_532" x1="681.173" y1="158.781" x2="796.275" y2="158.781" gradientUnits="userSpaceOnUse">
<stop stop-color="#231F20"/>
<stop offset="0.02" stop-color="#3C3939"/>
<stop offset="0.07" stop-color="#656262"/>
<stop offset="0.12" stop-color="#8A8788"/>
<stop offset="0.17" stop-color="#A9A8A8"/>
<stop offset="0.23" stop-color="#C4C3C3"/>
<stop offset="0.3" stop-color="#DAD9D9"/>
<stop offset="0.38" stop-color="#EAEAEA"/>
<stop offset="0.48" stop-color="#F6F6F6"/>
<stop offset="0.62" stop-color="#FDFDFD"/>
<stop offset="1" stop-color="white"/>
</linearGradient>
<linearGradient id="paint1_linear_42_532" x1="598.33" y1="100.358" x2="654.703" y2="100.358" gradientUnits="userSpaceOnUse">
<stop stop-color="#231F20"/>
<stop offset="0.04" stop-color="#373334"/>
<stop offset="0.13" stop-color="#656363"/>
<stop offset="0.22" stop-color="#8E8C8D"/>
<stop offset="0.32" stop-color="#B1B0B0"/>
<stop offset="0.43" stop-color="#CDCCCD"/>
<stop offset="0.54" stop-color="#E3E3E3"/>
<stop offset="0.66" stop-color="#F3F2F2"/>
<stop offset="0.8" stop-color="#FCFCFC"/>
<stop offset="1" stop-color="white"/>
</linearGradient>
<linearGradient id="paint2_linear_42_532" x1="37.6905" y1="-1.66721e-05" x2="94.0705" y2="-1.66721e-05" gradientUnits="userSpaceOnUse">
<stop stop-color="#231F20"/>
<stop offset="0.04" stop-color="#373334"/>
<stop offset="0.13" stop-color="#656363"/>
<stop offset="0.22" stop-color="#8E8C8D"/>
<stop offset="0.32" stop-color="#B1B0B0"/>
<stop offset="0.43" stop-color="#CDCCCD"/>
<stop offset="0.54" stop-color="#E3E3E3"/>
<stop offset="0.66" stop-color="#F3F2F2"/>
<stop offset="0.8" stop-color="#FCFCFC"/>
<stop offset="1" stop-color="white"/>
</linearGradient>
<linearGradient id="paint3_linear_42_532" x1="360.41" y1="199.437" x2="259.219" y2="199.437" gradientUnits="userSpaceOnUse">
<stop stop-color="#231F20"/>
<stop offset="0.02" stop-color="#3C3939"/>
<stop offset="0.07" stop-color="#656262"/>
<stop offset="0.12" stop-color="#8A8788"/>
<stop offset="0.17" stop-color="#A9A8A8"/>
<stop offset="0.23" stop-color="#C4C3C3"/>
<stop offset="0.3" stop-color="#DAD9D9"/>
<stop offset="0.38" stop-color="#EAEAEA"/>
<stop offset="0.48" stop-color="#F6F6F6"/>
<stop offset="0.62" stop-color="#FDFDFD"/>
<stop offset="1" stop-color="white"/>
</linearGradient>
<linearGradient id="paint4_linear_42_532" x1="438.278" y1="146.59" x2="557.65" y2="146.59" gradientUnits="userSpaceOnUse">
<stop stop-color="#231F20"/>
<stop offset="0.02" stop-color="#3C3939"/>
<stop offset="0.07" stop-color="#656262"/>
<stop offset="0.12" stop-color="#8A8788"/>
<stop offset="0.17" stop-color="#A9A8A8"/>
<stop offset="0.23" stop-color="#C4C3C3"/>
<stop offset="0.3" stop-color="#DAD9D9"/>
<stop offset="0.38" stop-color="#EAEAEA"/>
<stop offset="0.48" stop-color="#F6F6F6"/>
<stop offset="0.62" stop-color="#FDFDFD"/>
<stop offset="1" stop-color="white"/>
</linearGradient>
<linearGradient id="paint5_linear_42_532" x1="841.289" y1="146.59" x2="960.668" y2="146.59" gradientUnits="userSpaceOnUse">
<stop stop-color="#231F20"/>
<stop offset="0.02" stop-color="#3C3939"/>
<stop offset="0.07" stop-color="#656262"/>
<stop offset="0.12" stop-color="#8A8788"/>
<stop offset="0.17" stop-color="#A9A8A8"/>
<stop offset="0.23" stop-color="#C4C3C3"/>
<stop offset="0.3" stop-color="#DAD9D9"/>
<stop offset="0.38" stop-color="#EAEAEA"/>
<stop offset="0.48" stop-color="#F6F6F6"/>
<stop offset="0.62" stop-color="#FDFDFD"/>
<stop offset="1" stop-color="white"/>
</linearGradient>
</defs>
</svg>
